HIERARCHY
ROOT Hips
{
	OFFSET 0.000000 71.427986 0.000000
	CHANNELS 6 Xposition Yposition Zposition Xrotation Yrotation Zrotation
	JOINT Pelvis
	{
		OFFSET 0.000000 0.000000 0.000000
		CHANNELS 3 Xrotation Yrotation Zrotation
		JOINT LeftUpLeg
		{
			OFFSET 6.797100 -2.508499 -1.318700
			CHANNELS 3 Xrotation Yrotation Zrotation
			JOINT LeftLeg
			{
				OFFSET 0.069008 -29.241863 0.690200
				CHANNELS 3 Xrotation Yrotation Zrotation
				JOINT LeftFoot
				{
					OFFSET -0.069008 -29.568123 -0.266800
					CHANNELS 3 Xrotation Yrotation Zrotation
					JOINT LeftToeBase
					{
						OFFSET 3.145500 -8.631000 16.059900
						CHANNELS 3 Xrotation Yrotation Zrotation
						End Site
						{
							OFFSET 0.000000 18.501587 0.000000
						}
					}
				}
			}
			JOINT Left_ShortSleeve
			{
				OFFSET 0.265923 -10.480953 1.153800
				CHANNELS 3 Xrotation Yrotation Zrotation
				End Site
				{
					OFFSET 1.725763 19.823879 0.000000
				}
			}
		}
		JOINT RightUpLeg
		{
			OFFSET -6.797100 -2.508499 -1.318700
			CHANNELS 3 Xrotation Yrotation Zrotation
			JOINT RightLeg
			{
				OFFSET -0.082453 -29.241932 0.688000
				CHANNELS 3 Xrotation Yrotation Zrotation
				JOINT RightFoot
				{
					OFFSET 0.082453 -29.568058 -0.264600
					CHANNELS 3 Xrotation Yrotation Zrotation
					JOINT RightToeBase
					{
						OFFSET -3.115300 -8.682800 16.113400
						CHANNELS 3 Xrotation Yrotation Zrotation
						End Site
						{
							OFFSET 0.000000 18.567114 0.000000
						}
					}
				}
			}
			JOINT Right_ShortSleeve
			{
				OFFSET -0.265923 -10.480953 1.153800
				CHANNELS 3 Xrotation Yrotation Zrotation
				End Site
				{
					OFFSET -1.725766 19.823910 0.000000
				}
			}
		}
	}
	JOINT Spine
	{
		OFFSET 0.000000 13.368103 0.470500
		CHANNELS 3 Xrotation Yrotation Zrotation
		JOINT Spine1
		{
			OFFSET 0.147000 13.837402 0.538800
			CHANNELS 3 Xrotation Yrotation Zrotation
			JOINT Spine2
			{
				OFFSET 0.168000 16.242897 -1.435500
				CHANNELS 3 Xrotation Yrotation Zrotation
				JOINT Neck
				{
					OFFSET 0.217200 18.631500 -1.679100
					CHANNELS 3 Xrotation Yrotation Zrotation
					JOINT Head
					{
						OFFSET 0.000000 6.599396 1.385900
						CHANNELS 3 Xrotation Yrotation Zrotation
						JOINT Hat
						{
							OFFSET -0.532200 27.220596 -10.096100
							CHANNELS 3 Xrotation Yrotation Zrotation
							End Site
							{
								OFFSET 0.000000 22.029861 0.000000
							}
						}
						JOINT HairD
						{
							OFFSET -10.777400 17.437393 -1.325900
							CHANNELS 3 Xrotation Yrotation Zrotation
							JOINT HairD1
							{
								OFFSET -3.290299 -11.051193 1.062200
								CHANNELS 3 Xrotation Yrotation Zrotation
								End Site
								{
									OFFSET 0.000000 11.579437 0.000000
								}
							}
						}
						JOINT HairB
						{
							OFFSET -10.777400 17.437393 1.467900
							CHANNELS 3 Xrotation Yrotation Zrotation
							JOINT HairB1
							{
								OFFSET -1.561200 -12.956299 3.590200
								CHANNELS 3 Xrotation Yrotation Zrotation
								End Site
								{
									OFFSET 0.000000 13.534866 0.000000
								}
							}
						}
						JOINT HairA
						{
							OFFSET 9.713100 17.437393 1.467900
							CHANNELS 3 Xrotation Yrotation Zrotation
							JOINT HairA1
							{
								OFFSET 1.561200 -12.956299 3.590200
								CHANNELS 3 Xrotation Yrotation Zrotation
								End Site
								{
									OFFSET 0.000000 13.534866 0.000000
								}
							}
						}
						JOINT HairC
						{
							OFFSET 9.713100 17.437393 -1.325900
							CHANNELS 3 Xrotation Yrotation Zrotation
							JOINT HairC1
							{
								OFFSET 3.290300 -11.051193 1.062200
								CHANNELS 3 Xrotation Yrotation Zrotation
								End Site
								{
									OFFSET 0.000000 11.579437 0.000000
								}
							}
						}
					}
				}
				JOINT LeftShoulder
				{
					OFFSET 5.101800 15.108002 -2.763700
					CHANNELS 3 Xrotation Yrotation Zrotation
					JOINT LeftArm
					{
						OFFSET 9.825497 2.506317 -1.597400
						CHANNELS 3 Xrotation Yrotation Zrotation
						JOINT LeftForeArm
						{
							OFFSET 21.966244 0.000000 0.000000
							CHANNELS 3 Xrotation Yrotation Zrotation
							JOINT LeftHand
							{
								OFFSET 33.879036 0.000000 0.000000
								CHANNELS 3 Xrotation Yrotation Zrotation
								JOINT LeftHandThumb1
								{
									OFFSET 6.715286 -2.359680 3.363841
									CHANNELS 3 Xrotation Yrotation Zrotation
									JOINT LeftHandThumb2
									{
										OFFSET 2.507072 -1.447464 1.447461
										CHANNELS 3 Xrotation Yrotation Zrotation
										JOINT LeftHandThumb3
										{
											OFFSET 2.898338 -1.673355 1.673357
											CHANNELS 3 Xrotation Yrotation Zrotation
											End Site
											{
												OFFSET -0.295959 3.727692 -0.131651
											}
										}
									}
								}
								JOINT LeftHandIndex1
								{
									OFFSET 14.190811 -0.254547 3.840278
									CHANNELS 3 Xrotation Yrotation Zrotation
									JOINT LeftHandIndex2
									{
										OFFSET 3.551727 0.000000 -0.000000
										CHANNELS 3 Xrotation Yrotation Zrotation
										JOINT LeftHandIndex3
										{
											OFFSET 2.894196 0.000000 0.000000
											CHANNELS 3 Xrotation Yrotation Zrotation
											End Site
											{
												OFFSET -1.000603 2.690872 0.366626
											}
										}
									}
								}
								JOINT LeftHandMiddle1
								{
									OFFSET 13.776489 0.000000 0.000000
									CHANNELS 3 Xrotation Yrotation Zrotation
									JOINT LeftHandMiddle2
									{
										OFFSET 3.438232 0.000000 0.000000
										CHANNELS 3 Xrotation Yrotation Zrotation
										JOINT LeftHandMiddle3
										{
											OFFSET 3.691551 0.000000 0.000000
											CHANNELS 3 Xrotation Yrotation Zrotation
											End Site
											{
												OFFSET -1.082298 3.499527 0.457670
											}
										}
									}
								}
								JOINT LeftHandRing1
								{
									OFFSET 13.966164 -0.268127 -3.067488
									CHANNELS 3 Xrotation Yrotation Zrotation
									JOINT LeftHandRing2
									{
										OFFSET 3.162567 0.000000 0.000000
										CHANNELS 3 Xrotation Yrotation Zrotation
										JOINT LeftHandRing3
										{
											OFFSET 3.324348 0.000000 0.000000
											CHANNELS 3 Xrotation Yrotation Zrotation
											End Site
											{
												OFFSET -0.861900 3.184998 0.405154
											}
										}
									}
								}
								JOINT LeftHandPinky1
								{
									OFFSET 13.131393 -0.168503 -5.746925
									CHANNELS 3 Xrotation Yrotation Zrotation
									JOINT LeftHandPinky2
									{
										OFFSET 2.849182 0.000000 0.000000
										CHANNELS 3 Xrotation Yrotation Zrotation
										JOINT LeftHandPinky3
										{
											OFFSET 2.805038 0.000000 0.000000
											CHANNELS 3 Xrotation Yrotation Zrotation
											End Site
											{
												OFFSET -0.882500 2.642609 0.325652
											}
										}
									}
								}
							}
							JOINT Left_Sleeve
							{
								OFFSET 6.592125 -0.646545 0.805568
								CHANNELS 3 Xrotation Yrotation Zrotation
								End Site
								{
									OFFSET -0.000179 20.275787 -0.000000
								}
							}
						}
					}
				}
				JOINT RightShoulder
				{
					OFFSET -5.731700 15.108002 -2.763700
					CHANNELS 3 Xrotation Yrotation Zrotation
					JOINT RightArm
					{
						OFFSET -9.825497 2.506317 -1.597400
						CHANNELS 3 Xrotation Yrotation Zrotation
						JOINT RightForeArm
						{
							OFFSET -21.966242 0.000000 0.000000
							CHANNELS 3 Xrotation Yrotation Zrotation
							JOINT RightHand
							{
								OFFSET -33.879032 0.000000 0.000000
								CHANNELS 3 Xrotation Yrotation Zrotation
								JOINT RightHandThumb1
								{
									OFFSET -6.715286 -2.359680 3.363841
									CHANNELS 3 Xrotation Yrotation Zrotation
									JOINT RightHandThumb2
									{
										OFFSET -2.507072 -1.447464 1.447461
										CHANNELS 3 Xrotation Yrotation Zrotation
										JOINT RightHandThumb3
										{
											OFFSET -2.898338 -1.673355 1.673357
											CHANNELS 3 Xrotation Yrotation Zrotation
											End Site
											{
												OFFSET 0.295959 3.727692 -0.131651
											}
										}
									}
								}
								JOINT RightHandIndex1
								{
									OFFSET -14.190811 -0.254547 3.840278
									CHANNELS 3 Xrotation Yrotation Zrotation
									JOINT RightHandIndex2
									{
										OFFSET -3.551727 0.000000 -0.000000
										CHANNELS 3 Xrotation Yrotation Zrotation
										JOINT RightHandIndex3
										{
											OFFSET -2.894196 0.000000 0.000000
											CHANNELS 3 Xrotation Yrotation Zrotation
											End Site
											{
												OFFSET 1.000603 2.690872 0.366626
											}
										}
									}
								}
								JOINT RightHandMiddle1
								{
									OFFSET -13.776489 0.000000 0.000000
									CHANNELS 3 Xrotation Yrotation Zrotation
									JOINT RightHandMiddle2
									{
										OFFSET -3.438232 0.000000 0.000000
										CHANNELS 3 Xrotation Yrotation Zrotation
										JOINT RightHandMiddle3
										{
											OFFSET -3.691551 0.000000 0.000000
											CHANNELS 3 Xrotation Yrotation Zrotation
											End Site
											{
												OFFSET 1.082298 3.499527 0.457670
											}
										}
									}
								}
								JOINT RightHandRing1
								{
									OFFSET -13.966164 -0.268127 -3.067488
									CHANNELS 3 Xrotation Yrotation Zrotation
									JOINT RightHandRing2
									{
										OFFSET -3.162567 0.000000 0.000000
										CHANNELS 3 Xrotation Yrotation Zrotation
										JOINT RightHandRing3
										{
											OFFSET -3.324348 0.000000 0.000000
											CHANNELS 3 Xrotation Yrotation Zrotation
											End Site
											{
												OFFSET 0.861900 3.184998 0.405154
											}
										}
									}
								}
								JOINT RightHandPinky1
								{
									OFFSET -13.131393 -0.168503 -5.746925
									CHANNELS 3 Xrotation Yrotation Zrotation
									JOINT RightHandPinky2
									{
										OFFSET -2.849182 0.000000 0.000000
										CHANNELS 3 Xrotation Yrotation Zrotation
										JOINT RightHandPinky3
										{
											OFFSET -2.805038 0.000000 0.000000
											CHANNELS 3 Xrotation Yrotation Zrotation
											End Site
											{
												OFFSET 0.882500 2.642609 0.325652
											}
										}
									}
								}
							}
							JOINT Right_Sleeve
							{
								OFFSET -6.592125 -0.646545 0.805568
								CHANNELS 3 Xrotation Yrotation Zrotation
								End Site
								{
									OFFSET 0.000179 20.275787 -0.000000
								}
							}
						}
					}
				}
				JOINT Bind_Right_JacketString
				{
					OFFSET -3.534800 11.969597 7.200700
					CHANNELS 3 Xrotation Yrotation Zrotation
					JOINT Bind_Right_JacketString1
					{
						OFFSET -0.319900 -6.102600 2.794100
						CHANNELS 3 Xrotation Yrotation Zrotation
						End Site
						{
							OFFSET 0.000000 6.719452 0.000000
						}
					}
				}
				JOINT Bind_Left_JacketString
				{
					OFFSET 2.904800 11.969597 7.200700
					CHANNELS 3 Xrotation Yrotation Zrotation
					JOINT Bind_Left_JacketString1
					{
						OFFSET 0.364800 -5.904503 3.186800
						CHANNELS 3 Xrotation Yrotation Zrotation
						End Site
						{
							OFFSET 0.000000 6.719513 0.000000
						}
					}
				}
				JOINT HairE
				{
					OFFSET 5.915200 17.612701 -11.592200
					CHANNELS 3 Xrotation Yrotation Zrotation
					JOINT HairE1
					{
						OFFSET 0.289200 -7.171898 -1.284500
						CHANNELS 3 Xrotation Yrotation Zrotation
						End Site
						{
							OFFSET 0.000000 7.291756 0.000000
						}
					}
				}
				JOINT HairF
				{
					OFFSET -0.864800 17.612701 -11.592200
					CHANNELS 3 Xrotation Yrotation Zrotation
					JOINT HairF1
					{
						OFFSET 0.000000 -14.087097 -2.127501
						CHANNELS 3 Xrotation Yrotation Zrotation
						End Site
						{
							OFFSET 0.000000 14.246841 0.000000
						}
					}
				}
				JOINT HairG
				{
					OFFSET -8.087700 17.612701 -11.592200
					CHANNELS 3 Xrotation Yrotation Zrotation
					JOINT HairG1
					{
						OFFSET -0.293600 -6.081398 -0.910100
						CHANNELS 3 Xrotation Yrotation Zrotation
						End Site
						{
							OFFSET 0.000000 6.156120 0.000000
						}
					}
				}
			}
		}
	}
	JOINT Pouch
	{
		OFFSET 0.000000 4.394501 10.847300
		CHANNELS 3 Xrotation Yrotation Zrotation
		End Site
		{
			OFFSET 0.000000 21.880577 0.000000
		}
	}
	JOINT Bag
	{
		OFFSET -13.229000 4.813004 -0.593300
		CHANNELS 3 Xrotation Yrotation Zrotation
		End Site
		{
			OFFSET 0.000000 21.880577 0.000000
		}
	}
	JOINT OccupyGuyFacialAnim_Joint
	{
		OFFSET 1.000000 -70.206398 -1.655000
		CHANNELS 3 Xrotation Yrotation Zrotation
		End Site
		{
			OFFSET 0.000000 21.880577 0.000000
		}
	}
}
MOTION
Frames: 4
Frame Time: 0.033333
-1.833912 70.348923 0.948855 15.335733 -52.370117 12.876127 -0.000000 -0.000001 0.000000 -12.719887 18.882862 8.300074 15.866418 37.408895 -3.789540 -5.728302 -3.813749 -8.644799 0.000000 0.000000 0.000000 0.000000 0.000005 0.000001 -16.836087 2.751280 -11.033298 8.813527 30.332054 4.755189 -5.415332 -0.949174 3.936277 0.000000 0.000000 -0.000000 0.000001 0.000001 -0.000000 13.826098 3.497838 2.345390 -3.000152 -0.112722 5.542579 -3.044640 1.074591 5.368767 -27.082697 4.220765 -6.150033 -23.756148 -1.589483 -1.925623 -0.000000 0.000002 0.000001 -0.000000 0.000002 0.000001 -0.000000 0.000002 0.000000 -0.000000 0.000002 0.000000 -0.000000 0.000002 0.000000 -0.000000 0.000002 0.000000 -0.000000 0.000002 0.000000 -0.000000 0.000002 0.000001 -0.000000 0.000002 0.000001 11.171761 -4.631626 57.214893 -64.850611 16.845193 -13.230645 25.743784 -21.058071 23.129824 -51.170906 14.203489 6.838876 17.635279 -5.620767 -12.908575 10.804691 26.003401 8.638903 -0.000000 0.000002 -0.000004 14.689404 2.093018 -57.539761 0.410949 1.151563 -67.654178 0.000000 0.000003 0.000000 7.306759 1.126798 -64.925982 1.831460 1.450752 -65.466571 0.000001 -0.000002 0.000000 8.562525 2.213596 -74.918993 -0.219177 1.013803 -57.413300 0.000005 0.000001 -0.000002 10.192529 13.675123 -84.876159 0.891256 -0.004476 -64.958357 -0.000002 -0.000001 -0.000003 -0.000000 0.000002 -0.000001 6.035699 5.597778 11.619080 2.564451 -2.546062 44.485244 7.831520 20.898700 -3.118569 2.640563 6.052030 0.753345 15.769631 -2.706884 -17.204736 0.689659 -35.178336 7.833915 -0.000000 -0.000002 -0.000001 -2.807872 -2.689228 2.883327 -6.859230 -3.515097 13.107912 -0.000001 -0.000000 0.000002 -7.076360 -4.847585 8.114815 -4.263314 -6.839474 21.299650 -0.000001 -0.000000 -0.000001 -8.974105 -6.172951 5.825536 -0.300409 -6.388082 27.089524 0.000004 -0.000001 -0.000001 -11.936619 -12.595604 18.736211 6.599225 -4.966336 30.190034 0.000000 0.000000 0.000001 -0.000003 -0.000001 0.000001 -0.000000 0.000002 -0.000000 -0.000000 0.000002 -0.000001 -0.000000 0.000002 -0.000000 -0.000000 0.000002 -0.000000 -0.000000 0.000002 -0.000000 -0.000000 0.000002 -0.000000 -0.000000 0.000002 -0.000000 -0.000000 0.000002 -0.000000 -0.000000 0.000002 -0.000000 -0.000000 0.000002 -0.000000 -0.000000 -0.000001 0.000000 -0.000000 -0.000001 0.000000 -0.000000 -0.000001 0.000000 
-1.920271 70.346924 0.846873 15.219029 -52.305606 12.806650 -0.000000 -0.000001 -0.000000 -12.694739 18.958380 8.342851 15.715686 37.307958 -3.629385 -5.575249 -3.841576 -8.684992 0.000000 0.000000 0.000000 -0.000000 -0.000001 0.000000 -16.889526 2.727079 -10.969116 9.064233 30.270278 4.806064 -5.519926 -0.940772 3.736119 0.000000 0.000000 -0.000000 0.000000 -0.000004 -0.000001 13.756824 3.448734 2.442703 -2.960002 -0.159017 5.499108 -3.003610 1.024029 5.334045 -26.995930 4.222907 -6.102017 -23.717173 -1.556066 -1.934218 0.000001 0.000002 0.000002 0.000001 0.000002 0.000002 0.000001 0.000002 0.000001 0.000001 0.000002 0.000001 -0.000001 0.000002 0.000001 0.000001 0.000002 0.000001 -0.000001 0.000002 0.000001 0.000001 0.000002 0.000002 0.000001 0.000002 0.000002 11.166997 -4.633108 57.197083 -64.768765 16.819389 -13.246914 26.013447 -21.323458 23.362563 -51.062976 13.840966 6.796490 17.616794 -5.678302 -12.902274 10.834849 26.085242 8.642794 -0.000001 0.000001 -0.000001 14.519118 1.784885 -56.990108 0.404285 1.150626 -67.204062 0.000002 0.000000 0.000003 7.343025 1.151643 -64.571871 1.823379 1.455665 -65.165339 0.000002 -0.000003 -0.000003 8.554213 2.257058 -74.629085 -0.221397 1.006374 -57.177009 0.000001 0.000002 0.000000 9.975657 13.626075 -84.716557 0.891388 0.005261 -64.336864 -0.000000 -0.000000 0.000001 0.000001 0.000002 -0.000001 6.024185 5.553276 11.547924 2.763134 -2.427012 44.507329 7.657699 20.426196 -3.006010 2.786697 6.482179 0.708625 15.769647 -2.706894 -17.204739 0.504450 -34.929222 7.794243 -0.000003 0.000002 -0.000000 -2.656147 -2.711212 3.048401 -6.713857 -3.495592 13.275531 -0.000004 -0.000000 0.000000 -6.926893 -4.851493 8.281254 -4.121147 -6.798656 21.471784 -0.000002 -0.000000 0.000001 -8.823598 -6.187847 6.002063 -0.163806 -6.329359 27.269452 0.000004 0.000000 -0.000003 -11.809276 -12.554724 18.924210 6.730792 -4.903173 30.340670 0.000001 0.000000 -0.000001 0.000000 -0.000000 -0.000000 -0.000000 0.000003 -0.000002 -0.000000 -0.000002 0.000000 -0.000000 0.000003 -0.000001 -0.000000 0.000003 -0.000001 -0.000000 0.000003 -0.000002 -0.000000 -0.000002 0.000000 -0.000000 0.000003 -0.000001 -0.000000 0.000003 -0.000001 -0.000000 0.000003 -0.000002 -0.000000 -0.000002 0.000000 -0.000000 -0.000001 -0.000000 -0.000000 -0.000001 -0.000000 -0.000000 -0.000001 -0.000000 
-1.987212 70.349442 0.745914 15.079664 -52.130487 12.696340 0.000000 0.000003 -0.000000 -12.699213 18.999640 8.362856 15.497064 37.122911 -3.416343 -5.392548 -3.871066 -8.701603 0.000000 0.000000 0.000000 -0.000000 -0.000000 0.000001 -16.867092 2.691649 -10.913282 9.195290 30.175328 4.863801 -5.600714 -0.932409 3.557861 0.000000 0.000002 -0.000000 -0.000001 -0.000001 -0.000001 13.700704 3.415598 2.457508 -2.938724 -0.181843 5.504862 -2.982111 0.998518 5.345182 -26.903850 4.229277 -6.127698 -23.766140 -1.570732 -1.883287 -0.000000 0.000000 0.000001 -0.000000 0.000000 0.000001 -0.000000 0.000000 0.000001 -0.000000 0.000000 0.000002 -0.000000 0.000000 0.000002 -0.000000 0.000000 0.000002 -0.000000 0.000000 0.000002 -0.000000 0.000000 0.000001 -0.000000 0.000000 0.000001 11.147489 -4.594601 57.159101 -64.622332 16.764151 -13.340415 26.963099 -21.368115 24.021837 -50.981953 13.423605 6.936515 17.637512 -5.635963 -12.902973 10.802310 25.996984 8.638614 -0.000000 -0.000001 0.000002 14.436877 1.402260 -56.759528 0.402625 1.148911 -67.094874 0.000003 0.000002 0.000002 7.447124 1.107327 -64.532372 1.824710 1.455752 -65.213615 0.000004 0.000001 -0.000004 8.553653 2.238285 -74.754248 -0.220098 1.009190 -57.345947 0.000002 0.000000 -0.000002 9.953735 13.621043 -84.700397 0.891512 0.006285 -64.297249 0.000000 -0.000003 0.000001 0.000000 0.000001 0.000002 6.020177 5.523375 11.504666 2.870502 -2.424166 44.548912 7.674853 20.135002 -3.018491 2.852851 6.607334 0.959026 15.769662 -2.706975 -17.204779 0.297888 -34.649498 7.751308 -0.000002 -0.000002 -0.000003 -2.485440 -2.740087 3.235075 -6.551334 -3.472960 13.465037 0.000002 -0.000002 0.000003 -6.757856 -4.863262 8.468573 -3.962200 -6.751955 21.666250 0.000002 -0.000002 0.000001 -8.650372 -6.221644 6.198881 -0.010294 -6.264101 27.473473 -0.000000 -0.000000 -0.000001 -11.659946 -12.509996 19.126749 6.877598 -4.831706 30.508628 0.000001 -0.000002 0.000000 0.000002 0.000001 0.000001 0.000000 0.000006 -0.000001 0.000000 0.000002 -0.000001 0.000000 0.000006 -0.000001 0.000000 0.000006 -0.000001 0.000000 0.000006 -0.000001 0.000000 0.000002 -0.000001 0.000000 0.000006 -0.000001 0.000000 0.000006 -0.000001 0.000000 0.000006 -0.000001 0.000000 0.000002 -0.000001 0.000000 0.000003 -0.000000 0.000000 0.000003 -0.000000 0.000000 0.000003 -0.000000 
-2.039149 70.350723 0.659906 14.952744 -51.812466 12.553590 -0.000000 -0.000002 -0.000000 -12.788820 19.054647 8.440023 15.323371 36.742350 -3.271611 -5.239888 -3.900394 -8.677302 0.000000 0.000000 -0.000000 0.000000 -0.000001 0.000001 -16.844145 2.636997 -10.832817 9.341588 29.928038 4.840779 -5.694041 -0.927519 3.444503 -0.000000 -0.000000 -0.000000 0.000002 0.000003 -0.000001 13.534528 3.386408 2.528336 -2.877766 -0.194169 5.480673 -2.920919 0.978239 5.324288 -26.895519 4.193118 -6.113097 -23.795155 -1.575490 -1.926221 -0.000000 0.000001 0.000001 -0.000000 0.000001 0.000001 -0.000000 0.000001 0.000001 -0.000000 0.000001 0.000001 0.000001 -0.000002 -0.000001 -0.000000 0.000001 0.000001 0.000001 -0.000002 -0.000001 -0.000000 0.000001 0.000001 -0.000000 0.000001 0.000001 11.119442 -4.531286 57.201718 -64.487374 16.722303 -13.410959 27.766845 -21.378366 24.583277 -50.893515 13.041657 7.004358 17.691255 -5.521705 -12.906092 10.783347 25.945449 8.636137 0.000000 -0.000001 -0.000001 14.334952 1.099585 -56.451992 0.399386 1.146871 -66.882046 0.000002 -0.000003 0.000003 7.482844 1.113689 -64.341516 1.820847 1.460118 -65.065939 0.000005 -0.000003 0.000000 8.549823 2.267696 -74.558065 -0.221137 1.006480 -57.181937 -0.000000 0.000001 0.000000 9.801805 13.586205 -84.587569 0.891617 0.013296 -63.861285 -0.000002 -0.000003 0.000002 0.000001 0.000001 -0.000001 6.022987 5.490332 11.507996 2.929211 -2.464528 44.585037 7.834386 20.023565 -3.116931 2.860287 6.348730 1.373467 15.769727 -2.707154 -17.204745 0.072337 -34.342184 7.705963 0.000001 0.000004 0.000005 -2.296669 -2.775932 3.442044 -6.373398 -3.447254 13.674820 0.000006 -0.000000 0.000000 -6.571032 -4.885261 8.674973 -3.788180 -6.699897 21.881423 -0.000003 -0.000000 -0.000001 -8.455702 -6.275463 6.414467 0.158350 -6.192696 27.700099 -0.000002 0.000001 -0.000001 -11.489095 -12.462161 19.340589 7.037884 -4.752451 30.692094 -0.000003 0.000001 0.000002 0.000002 0.000000 -0.000001 0.000002 0.000000 -0.000000 0.000002 -0.000001 -0.000001 0.000002 0.000000 -0.000000 0.000002 0.000000 -0.000000 0.000002 0.000000 -0.000000 0.000002 -0.000001 -0.000000 0.000002 0.000000 -0.000000 0.000002 0.000000 -0.000000 0.000002 0.000000 -0.000000 0.000002 -0.000001 -0.000000 -0.000000 -0.000002 -0.000000 -0.000000 -0.000002 -0.000000 -0.000000 -0.000002 -0.000000 
